<svg xmlns="http://www.w3.org/2000/svg" version="1.1" xmlns:xlink="http://www.w3.org/1999/xlink" width="1000" height="1000"><g clip-path="url(#SvgjsClipPath1003)"><rect width="1000" height="1000" fill="#ffffff"></rect><g transform="matrix(3.5,0,0,3.5,150,150)"><svg xmlns="http://www.w3.org/2000/svg" version="1.1" xmlns:xlink="http://www.w3.org/1999/xlink" width="200" height="200"><svg xmlns="http://www.w3.org/2000/svg" version="1.1" xmlns:xlink="http://www.w3.org/1999/xlink" viewBox="0 0 200 200"><rect width="200" height="200" fill="url('#gradient')"></rect><defs><linearGradient id="gradient" gradientTransform="rotate(89 0.5 0.5)"><stop offset="0%" stop-color="#6b2836"></stop><stop offset="100%" stop-color="#2b3a61"></stop></linearGradient><clipPath id="SvgjsClipPath1003"><rect width="1000" height="1000" x="0" y="0" rx="350" ry="350"></rect></clipPath></defs><g><g fill="#ffffff" transform="matrix(3.6908457915216055,0,0,3.6908457915216055,9.51731052871564,122.0910366972377)" stroke="#f0c7c7" stroke-width="0.2"><path d="M13.12-7.47L13.12-6.82Q13.12-4.74 12.34-3.13Q11.57-1.53 10.15-0.67Q8.73 0.20 6.91 0.20Q5.10 0.20 3.69-0.64Q2.29-1.47 1.50-3.03Q0.71-4.58 0.67-6.59L0.67-6.59L0.67-7.39Q0.67-9.48 1.44-11.08Q2.21-12.68 3.64-13.54Q5.07-14.41 6.89-14.41L6.89-14.41Q8.70-14.41 10.12-13.55Q11.53-12.70 12.32-11.11Q13.11-9.52 13.12-7.47L13.12-7.47ZM9.63-6.76L9.63-7.41Q9.63-9.53 8.92-10.63Q8.21-11.73 6.89-11.73L6.89-11.73Q4.32-11.73 4.17-7.86L4.17-7.86L4.16-6.82Q4.16-4.73 4.85-3.60Q5.55-2.48 6.91-2.48L6.91-2.48Q8.21-2.48 8.92-3.58Q9.62-4.69 9.63-6.76L9.63-6.76ZM26.52-7.60L26.52-1.76Q25.73-0.88 24.21-0.34Q22.69 0.20 20.87 0.20L20.87 0.20Q18.08 0.20 16.41-1.51Q14.74-3.22 14.62-6.27L14.62-6.27L14.61-7.50Q14.61-9.60 15.35-11.17Q16.09-12.73 17.48-13.58Q18.86-14.42 20.67-14.42L20.67-14.42Q23.33-14.42 24.80-13.21Q26.27-11.99 26.51-9.58L26.51-9.58L23.21-9.58Q23.04-10.77 22.45-11.28Q21.87-11.79 20.79-11.79L20.79-11.79Q19.50-11.79 18.80-10.69Q18.10-9.60 18.09-7.57L18.09-7.57L18.09-6.71Q18.09-4.58 18.81-3.51Q19.54-2.44 21.10-2.44L21.10-2.44Q22.44-2.44 23.10-3.04L23.10-3.04L23.10-5.24L20.71-5.24L20.71-7.60L26.52-7.60ZM36.26 0L36.26 2.45L27.44 2.45L27.44 0L36.26 0ZM43.12 0L37.34 0L37.34-14.22L42.45-14.22Q45.20-14.22 46.63-13.21Q48.06-12.21 48.06-10.29L48.06-10.29Q48.06-9.19 47.55-8.41Q47.04-7.63 46.05-7.26L46.05-7.26Q47.17-6.96 47.76-6.16Q48.36-5.36 48.36-4.21L48.36-4.21Q48.36-2.12 47.04-1.07Q45.71-0.02 43.12 0L43.12 0ZM43.17-6.04L40.77-6.04L40.77-2.64L43.02-2.64Q43.95-2.64 44.44-3.06Q44.94-3.49 44.94-4.26L44.94-4.26Q44.94-6.04 43.17-6.04L43.17-6.04ZM40.77-11.57L40.77-8.29L42.56-8.29Q43.68-8.30 44.16-8.70Q44.64-9.10 44.64-9.88L44.64-9.88Q44.64-10.78 44.12-11.18Q43.60-11.57 42.45-11.57L42.45-11.57L40.77-11.57Z"></path></g></g></svg></svg></g></g></svg>